<?xml version="1.0" encoding="utf-8"?>
<!-- Generator: Adobe Illustrator 15.0.0, SVG Export Plug-In . SVG Version: 6.00 Build 0)  -->
<!DOCTYPE svg PUBLIC "-//W3C//DTD SVG 1.1//EN" "http://www.w3.org/Graphics/SVG/1.1/DTD/svg11.dtd">
<svg version="1.1" id="Capa_1" xmlns="http://www.w3.org/2000/svg" xmlns:xlink="http://www.w3.org/1999/xlink" x="0px" y="0px"
	 width="240.94px" height="155.91px" viewBox="0 0 240.94 155.91" enable-background="new 0 0 240.94 155.91" xml:space="preserve">
<g>
	<g>
		<g>
			<circle fill="#D37841" cx="17.094" cy="77.168" r="4.16"/>
			<circle fill="#D37841" cx="27.489" cy="77.168" r="4.16"/>
			<circle fill="#D37841" cx="37.884" cy="77.168" r="4.16"/>
		</g>
		<g>
			<path fill="#99989D" d="M52.912,74.722c-0.329-0.311-0.79-0.465-1.381-0.465c-0.423,0-0.794,0.089-1.113,0.268
				c-0.319,0.178-0.585,0.412-0.797,0.704c-0.211,0.291-0.371,0.623-0.479,0.994c-0.107,0.372-0.162,0.75-0.162,1.135
				s0.054,0.762,0.162,1.134c0.108,0.371,0.268,0.701,0.479,0.993c0.212,0.292,0.478,0.528,0.797,0.706
				c0.319,0.179,0.69,0.267,1.113,0.267c0.272,0,0.53-0.054,0.774-0.154c0.245-0.104,0.46-0.246,0.649-0.43
				c0.187-0.184,0.343-0.402,0.465-0.655c0.121-0.253,0.197-0.531,0.225-0.831h0.887c-0.123,0.883-0.445,1.571-0.972,2.064
				c-0.527,0.494-1.202,0.74-2.029,0.74c-0.555,0-1.044-0.102-1.473-0.304c-0.427-0.202-0.786-0.476-1.076-0.825
				c-0.291-0.348-0.509-0.753-0.659-1.22c-0.148-0.464-0.224-0.961-0.224-1.487c0-0.528,0.075-1.022,0.224-1.489
				c0.149-0.465,0.368-0.872,0.659-1.22c0.29-0.347,0.648-0.625,1.076-0.833c0.428-0.206,0.918-0.309,1.473-0.309
				c0.78,0,1.439,0.207,1.979,0.622c0.54,0.414,0.861,1.041,0.964,1.875h-0.887C53.465,75.458,53.24,75.033,52.912,74.722z"/>
			<path fill="#99989D" d="M60.748,73.814c0.428,0.208,0.787,0.486,1.078,0.833c0.292,0.348,0.512,0.754,0.662,1.22
				c0.151,0.467,0.227,0.961,0.227,1.489c0,0.525-0.076,1.022-0.227,1.487c-0.15,0.467-0.37,0.872-0.662,1.22
				c-0.291,0.35-0.65,0.623-1.078,0.825c-0.428,0.202-0.918,0.304-1.473,0.304c-0.554,0-1.046-0.102-1.474-0.304
				s-0.787-0.476-1.078-0.825c-0.292-0.348-0.512-0.753-0.662-1.22c-0.151-0.464-0.226-0.961-0.226-1.487
				c0-0.528,0.075-1.022,0.226-1.489c0.15-0.465,0.371-0.872,0.662-1.22c0.292-0.347,0.65-0.625,1.078-0.833
				c0.428-0.206,0.919-0.309,1.474-0.309C59.829,73.505,60.319,73.608,60.748,73.814z M58.157,74.525
				c-0.32,0.178-0.586,0.412-0.798,0.704c-0.212,0.291-0.372,0.623-0.481,0.994c-0.107,0.372-0.162,0.75-0.162,1.135
				s0.054,0.762,0.162,1.134c0.109,0.371,0.269,0.701,0.481,0.993c0.211,0.292,0.478,0.528,0.798,0.706
				c0.321,0.179,0.694,0.267,1.118,0.267c0.424,0,0.796-0.088,1.118-0.267c0.32-0.178,0.586-0.414,0.798-0.706
				c0.212-0.292,0.373-0.622,0.481-0.993c0.108-0.372,0.163-0.749,0.163-1.134s-0.054-0.763-0.163-1.135
				c-0.108-0.371-0.269-0.703-0.481-0.994c-0.211-0.292-0.478-0.526-0.798-0.704c-0.322-0.179-0.694-0.268-1.118-0.268
				C58.851,74.257,58.478,74.346,58.157,74.525z"/>
			<path fill="#99989D" d="M68.653,75.136c-0.104-0.2-0.242-0.367-0.417-0.5c-0.174-0.13-0.374-0.225-0.6-0.289
				c-0.226-0.058-0.466-0.09-0.72-0.09c-0.199,0-0.4,0.021-0.601,0.062c-0.204,0.044-0.389,0.114-0.559,0.214
				c-0.17,0.097-0.307,0.225-0.411,0.386c-0.104,0.16-0.155,0.358-0.155,0.592c0,0.197,0.049,0.364,0.148,0.5
				c0.099,0.136,0.224,0.251,0.374,0.346c0.15,0.093,0.315,0.171,0.495,0.232c0.178,0.061,0.342,0.111,0.494,0.147l1.185,0.267
				c0.253,0.039,0.506,0.108,0.755,0.206c0.249,0.1,0.47,0.228,0.664,0.389c0.192,0.16,0.351,0.355,0.473,0.592
				c0.122,0.234,0.184,0.513,0.184,0.83c0,0.396-0.09,0.731-0.269,1.009c-0.179,0.276-0.407,0.503-0.683,0.676
				c-0.277,0.175-0.59,0.299-0.938,0.375c-0.347,0.073-0.691,0.112-1.03,0.112c-0.855,0-1.548-0.204-2.079-0.606
				c-0.531-0.404-0.834-1.053-0.909-1.945h0.88c0.037,0.602,0.256,1.056,0.657,1.358c0.401,0.307,0.898,0.459,1.494,0.459
				c0.216,0,0.44-0.022,0.672-0.069c0.23-0.048,0.445-0.128,0.643-0.241c0.198-0.112,0.36-0.256,0.488-0.429
				c0.128-0.176,0.192-0.389,0.192-0.642c0-0.217-0.045-0.397-0.134-0.545c-0.089-0.145-0.21-0.267-0.36-0.367
				c-0.15-0.097-0.322-0.181-0.514-0.246c-0.193-0.064-0.389-0.122-0.586-0.17l-1.143-0.253c-0.292-0.075-0.56-0.161-0.805-0.26
				c-0.244-0.099-0.458-0.222-0.642-0.367c-0.184-0.146-0.327-0.323-0.431-0.534c-0.104-0.212-0.155-0.475-0.155-0.784
				c0-0.367,0.082-0.682,0.246-0.945c0.165-0.264,0.378-0.475,0.642-0.636c0.263-0.158,0.556-0.278,0.88-0.353
				s0.646-0.111,0.964-0.111c0.367,0,0.707,0.047,1.022,0.142c0.313,0.094,0.591,0.242,0.831,0.439
				c0.239,0.197,0.429,0.444,0.57,0.733c0.141,0.293,0.22,0.636,0.24,1.028h-0.881C68.814,75.578,68.758,75.339,68.653,75.136z"/>
			<path fill="#99989D" d="M74.558,73.725v0.753h-1.486v4.893c0,0.294,0.04,0.521,0.12,0.684c0.08,0.164,0.28,0.255,0.601,0.275
				c0.255,0,0.51-0.011,0.765-0.036v0.733c-0.132,0-0.265,0.006-0.397,0.02c-0.131,0.012-0.263,0.017-0.396,0.017
				c-0.593,0-1.009-0.115-1.244-0.345c-0.236-0.23-0.349-0.655-0.339-1.272l0.01-4.968h-1.269v-0.753h1.269v-2.182h0.88v2.182
				H74.558z"/>
			<path fill="#99989D" d="M76.443,74.847c0.15-0.308,0.354-0.564,0.611-0.761c0.258-0.197,0.561-0.345,0.908-0.439
				c0.348-0.094,0.731-0.142,1.153-0.142c0.32,0,0.638,0.031,0.957,0.092s0.605,0.176,0.858,0.344
				c0.255,0.169,0.46,0.406,0.619,0.714c0.16,0.303,0.238,0.702,0.238,1.19v3.863c0,0.359,0.175,0.536,0.522,0.536
				c0.104,0,0.198-0.02,0.282-0.055v0.747c-0.103,0.02-0.195,0.031-0.276,0.041c-0.079,0.009-0.18,0.015-0.302,0.015
				c-0.224,0-0.403-0.03-0.538-0.091c-0.135-0.062-0.239-0.148-0.313-0.263c-0.074-0.11-0.123-0.244-0.146-0.402
				c-0.024-0.153-0.036-0.325-0.036-0.513h-0.028c-0.16,0.235-0.322,0.444-0.487,0.627c-0.165,0.184-0.348,0.336-0.55,0.461
				c-0.202,0.119-0.433,0.214-0.691,0.28c-0.258,0.065-0.566,0.099-0.923,0.099c-0.338,0-0.656-0.04-0.952-0.12
				c-0.296-0.08-0.555-0.206-0.775-0.38c-0.222-0.174-0.396-0.396-0.522-0.663c-0.127-0.27-0.19-0.585-0.19-0.952
				c0-0.507,0.113-0.903,0.339-1.189c0.224-0.286,0.523-0.506,0.895-0.656c0.371-0.151,0.788-0.255,1.254-0.318
				c0.464-0.059,0.937-0.121,1.417-0.176c0.187-0.017,0.352-0.042,0.492-0.069c0.142-0.028,0.258-0.078,0.352-0.147
				c0.094-0.073,0.169-0.167,0.22-0.29c0.05-0.122,0.078-0.283,0.078-0.48c0-0.3-0.05-0.548-0.15-0.739
				c-0.098-0.192-0.235-0.345-0.408-0.458c-0.175-0.111-0.377-0.189-0.608-0.233c-0.23-0.042-0.477-0.062-0.74-0.062
				c-0.564,0-1.026,0.133-1.383,0.401c-0.358,0.267-0.546,0.697-0.564,1.29h-0.881C76.205,75.525,76.293,75.158,76.443,74.847z
				 M80.881,77.02c-0.056,0.103-0.165,0.177-0.324,0.225c-0.16,0.047-0.301,0.08-0.424,0.101c-0.376,0.066-0.765,0.123-1.165,0.175
				c-0.4,0.05-0.765,0.127-1.095,0.232c-0.33,0.104-0.6,0.251-0.811,0.445c-0.212,0.193-0.319,0.466-0.319,0.823
				c0,0.227,0.046,0.426,0.135,0.6c0.089,0.173,0.209,0.323,0.36,0.451c0.151,0.126,0.324,0.223,0.521,0.288
				c0.198,0.066,0.4,0.099,0.607,0.099c0.339,0,0.664-0.054,0.974-0.154c0.311-0.104,0.582-0.254,0.813-0.451
				c0.229-0.197,0.413-0.437,0.55-0.718c0.137-0.283,0.206-0.603,0.206-0.958V77.02H80.881z"/>
			<path fill="#99989D" d="M85.333,74.478v6.513h-0.88v-6.513h-1.239v-0.753h1.239v-0.667c0-0.312,0.024-0.6,0.071-0.864
				s0.135-0.49,0.264-0.681c0.132-0.188,0.312-0.333,0.541-0.439c0.228-0.104,0.522-0.156,0.88-0.156
				c0.128,0,0.251,0.006,0.364,0.014c0.114,0.01,0.239,0.025,0.38,0.044v0.767c-0.122-0.019-0.236-0.036-0.339-0.051
				c-0.103-0.015-0.206-0.022-0.309-0.022c-0.244,0-0.434,0.038-0.564,0.112c-0.132,0.076-0.228,0.178-0.289,0.306
				c-0.061,0.128-0.097,0.278-0.105,0.446c-0.01,0.171-0.015,0.354-0.015,0.554v0.636h1.438v0.753H85.333z"/>
			<path fill="#99989D" d="M89.347,70.937V80.99h-0.881V70.937H89.347z"/>
			<path fill="#99989D" d="M96.023,73.814c0.428,0.208,0.786,0.486,1.078,0.833c0.292,0.348,0.513,0.754,0.661,1.22
				c0.151,0.467,0.228,0.961,0.228,1.489c0,0.525-0.077,1.022-0.228,1.487c-0.148,0.467-0.37,0.872-0.661,1.22
				c-0.292,0.35-0.65,0.623-1.078,0.825c-0.428,0.202-0.92,0.304-1.473,0.304c-0.555,0-1.047-0.102-1.472-0.304
				c-0.431-0.202-0.789-0.476-1.081-0.825c-0.292-0.348-0.511-0.753-0.661-1.22c-0.152-0.464-0.226-0.961-0.226-1.487
				c0-0.528,0.074-1.022,0.226-1.489c0.15-0.465,0.369-0.872,0.661-1.22c0.292-0.347,0.65-0.625,1.081-0.833
				c0.425-0.206,0.917-0.309,1.472-0.309C95.104,73.505,95.595,73.608,96.023,73.814z M93.434,74.525
				c-0.321,0.178-0.587,0.412-0.8,0.704c-0.211,0.291-0.372,0.623-0.48,0.994c-0.108,0.372-0.163,0.75-0.163,1.135
				s0.054,0.762,0.163,1.134c0.108,0.371,0.27,0.701,0.48,0.993c0.213,0.292,0.479,0.528,0.8,0.706
				c0.319,0.179,0.692,0.267,1.117,0.267c0.424,0,0.796-0.088,1.117-0.267c0.319-0.178,0.586-0.414,0.797-0.706
				c0.214-0.292,0.373-0.622,0.48-0.993c0.108-0.372,0.164-0.749,0.164-1.134s-0.056-0.763-0.164-1.135
				c-0.108-0.371-0.267-0.703-0.48-0.994c-0.211-0.292-0.478-0.526-0.797-0.704c-0.321-0.179-0.693-0.268-1.117-0.268
				C94.125,74.257,93.753,74.346,93.434,74.525z"/>
			<path fill="#99989D" d="M100.541,73.73v1.705h0.029c0.227-0.59,0.577-1.046,1.052-1.363c0.472-0.317,1.039-0.461,1.697-0.434
				v0.881c-0.405-0.019-0.771,0.036-1.1,0.161c-0.328,0.128-0.611,0.309-0.85,0.543c-0.242,0.233-0.426,0.513-0.559,0.837
				c-0.13,0.324-0.197,0.678-0.197,1.063v3.872h-0.881V73.73H100.541z"/>
			<path fill="#99989D" d="M104.986,78.59c0.09,0.344,0.233,0.65,0.43,0.924c0.197,0.272,0.447,0.499,0.748,0.677
				c0.3,0.179,0.661,0.267,1.085,0.267c0.646,0,1.154-0.17,1.522-0.509c0.366-0.336,0.619-0.789,0.76-1.351h0.881
				c-0.186,0.827-0.533,1.465-1.034,1.916c-0.503,0.451-1.211,0.678-2.129,0.678c-0.571,0-1.066-0.102-1.484-0.304
				c-0.417-0.202-0.757-0.479-1.018-0.831c-0.264-0.353-0.458-0.764-0.583-1.229c-0.128-0.466-0.192-0.955-0.192-1.472
				c0-0.481,0.064-0.95,0.192-1.411c0.127-0.461,0.319-0.873,0.583-1.234c0.263-0.364,0.603-0.654,1.02-0.875
				c0.417-0.222,0.914-0.331,1.487-0.331c0.583,0,1.078,0.117,1.492,0.353c0.414,0.233,0.749,0.542,1.006,0.922
				c0.258,0.38,0.444,0.819,0.556,1.311c0.113,0.495,0.161,0.995,0.141,1.503h-5.595C104.853,77.915,104.897,78.247,104.986,78.59z
				 M109.392,75.873c-0.109-0.309-0.261-0.582-0.461-0.821c-0.194-0.239-0.436-0.433-0.716-0.577
				c-0.284-0.146-0.604-0.218-0.961-0.218c-0.367,0-0.692,0.072-0.972,0.218c-0.284,0.144-0.526,0.337-0.722,0.577
				c-0.199,0.239-0.355,0.515-0.474,0.829c-0.117,0.314-0.194,0.633-0.233,0.964h4.715C109.559,76.506,109.5,76.184,109.392,75.873z
				"/>
			<path fill="#99989D" d="M116.272,75.136c-0.106-0.2-0.243-0.367-0.417-0.5c-0.175-0.13-0.375-0.225-0.603-0.289
				c-0.223-0.058-0.467-0.09-0.72-0.09c-0.198,0-0.4,0.021-0.6,0.062c-0.204,0.044-0.389,0.114-0.56,0.214
				c-0.168,0.097-0.308,0.225-0.41,0.386c-0.103,0.16-0.155,0.358-0.155,0.592c0,0.197,0.05,0.364,0.149,0.5
				c0.098,0.136,0.223,0.251,0.373,0.346c0.153,0.093,0.313,0.171,0.494,0.232c0.181,0.061,0.344,0.111,0.495,0.147l1.187,0.267
				c0.252,0.039,0.503,0.108,0.753,0.206c0.25,0.1,0.471,0.228,0.664,0.389c0.191,0.16,0.35,0.355,0.474,0.592
				c0.12,0.234,0.182,0.513,0.182,0.83c0,0.396-0.089,0.731-0.267,1.009c-0.181,0.276-0.406,0.503-0.684,0.676
				c-0.278,0.175-0.592,0.299-0.939,0.375c-0.348,0.073-0.692,0.112-1.029,0.112c-0.855,0-1.55-0.204-2.081-0.606
				c-0.529-0.404-0.833-1.053-0.908-1.945h0.879c0.041,0.602,0.257,1.056,0.658,1.358c0.402,0.307,0.9,0.459,1.494,0.459
				c0.217,0,0.442-0.022,0.672-0.069c0.232-0.048,0.445-0.128,0.644-0.241c0.198-0.112,0.362-0.256,0.489-0.429
				c0.127-0.176,0.19-0.389,0.19-0.642c0-0.217-0.044-0.397-0.133-0.545c-0.09-0.145-0.211-0.267-0.359-0.367
				c-0.152-0.097-0.324-0.181-0.516-0.246c-0.193-0.064-0.389-0.122-0.586-0.17l-1.142-0.253c-0.292-0.075-0.562-0.161-0.803-0.26
				c-0.248-0.099-0.461-0.222-0.642-0.367c-0.186-0.146-0.331-0.323-0.432-0.534c-0.104-0.212-0.155-0.475-0.155-0.784
				c0-0.367,0.082-0.682,0.246-0.945c0.165-0.264,0.377-0.475,0.641-0.636c0.261-0.158,0.558-0.278,0.88-0.353
				c0.324-0.075,0.645-0.111,0.965-0.111c0.364,0,0.706,0.047,1.02,0.142c0.315,0.094,0.594,0.242,0.831,0.439
				c0.241,0.197,0.429,0.444,0.573,0.733c0.139,0.293,0.22,0.636,0.236,1.028h-0.879C116.431,75.578,116.375,75.339,116.272,75.136z
				"/>
		</g>
	</g>
	<g>
		<path fill="#99989D" d="M127.603,73.369c0.43,0.208,0.793,0.489,1.088,0.839c0.294,0.352,0.517,0.761,0.668,1.231
			c0.151,0.469,0.228,0.97,0.228,1.5c0,0.532-0.076,1.033-0.228,1.502c-0.151,0.47-0.374,0.879-0.668,1.229
			c-0.295,0.353-0.658,0.63-1.088,0.832c-0.432,0.205-0.929,0.308-1.486,0.308c-0.56,0-1.057-0.103-1.486-0.308
			c-0.433-0.202-0.795-0.479-1.09-0.832c-0.294-0.35-0.517-0.759-0.668-1.229c-0.151-0.469-0.228-0.97-0.228-1.502
			c0-0.53,0.076-1.031,0.228-1.5c0.151-0.47,0.374-0.879,0.668-1.231c0.295-0.35,0.657-0.63,1.09-0.839
			c0.43-0.208,0.927-0.312,1.486-0.312C126.674,73.057,127.171,73.161,127.603,73.369z M124.992,74.08
			c-0.324,0.181-0.591,0.418-0.805,0.711c-0.214,0.295-0.375,0.628-0.483,1.003c-0.109,0.375-0.164,0.755-0.164,1.144
			c0,0.389,0.055,0.771,0.164,1.146c0.108,0.374,0.27,0.708,0.483,1.004c0.214,0.293,0.48,0.53,0.805,0.711
			c0.322,0.18,0.696,0.27,1.124,0.27c0.426,0,0.8-0.09,1.123-0.27c0.322-0.181,0.591-0.418,0.803-0.711
			c0.215-0.295,0.376-0.63,0.484-1.004c0.109-0.375,0.164-0.757,0.164-1.146c0-0.389-0.055-0.77-0.164-1.144
			c-0.108-0.375-0.27-0.708-0.484-1.003c-0.212-0.293-0.48-0.53-0.803-0.711c-0.323-0.18-0.697-0.269-1.123-0.269
			C125.688,73.811,125.314,73.9,124.992,74.08z"/>
		<path fill="#99989D" d="M132.075,73.269v1.722h0.029c0.229-0.598,0.581-1.058,1.061-1.38c0.477-0.322,1.05-0.47,1.712-0.44v0.896
			c-0.407-0.02-0.776,0.035-1.108,0.164c-0.332,0.127-0.619,0.31-0.861,0.547c-0.241,0.237-0.429,0.52-0.561,0.846
			c-0.134,0.328-0.201,0.685-0.201,1.074v3.912h-0.895v-7.34H132.075z"/>
		<path fill="#99989D" d="M142.083,81.478c-0.119,0.437-0.306,0.806-0.562,1.11c-0.256,0.303-0.59,0.535-1.002,0.695
			c-0.412,0.161-0.918,0.242-1.516,0.242c-0.369,0-0.73-0.042-1.08-0.128c-0.353-0.085-0.668-0.218-0.946-0.396
			c-0.281-0.182-0.513-0.412-0.697-0.691c-0.186-0.28-0.292-0.613-0.319-1.003h0.896c0.047,0.275,0.139,0.506,0.276,0.69
			s0.305,0.334,0.499,0.448c0.194,0.113,0.41,0.197,0.646,0.248c0.237,0.053,0.479,0.079,0.726,0.079
			c0.835,0,1.437-0.237,1.806-0.711c0.371-0.476,0.556-1.157,0.556-2.049v-0.997h-0.029c-0.207,0.456-0.513,0.821-0.917,1.097
			c-0.402,0.275-0.875,0.413-1.415,0.413c-0.587,0-1.09-0.099-1.508-0.292c-0.418-0.195-0.761-0.463-1.031-0.805
			c-0.27-0.34-0.467-0.742-0.591-1.201c-0.124-0.46-0.185-0.951-0.185-1.473c0-0.503,0.074-0.979,0.221-1.43
			c0.147-0.45,0.36-0.843,0.641-1.181c0.279-0.336,0.625-0.601,1.038-0.796c0.412-0.194,0.885-0.292,1.415-0.292
			c0.275,0,0.534,0.038,0.775,0.114c0.242,0.075,0.463,0.182,0.661,0.319c0.2,0.138,0.378,0.297,0.533,0.477
			c0.157,0.18,0.277,0.369,0.362,0.569h0.029v-1.267h0.896v6.744C142.261,80.553,142.201,81.042,142.083,81.478z M140.027,79.522
			c0.294-0.166,0.54-0.385,0.74-0.655c0.198-0.27,0.349-0.581,0.447-0.932c0.1-0.35,0.149-0.711,0.149-1.081
			c0-0.36-0.043-0.721-0.128-1.081c-0.085-0.361-0.223-0.688-0.412-0.982c-0.19-0.293-0.436-0.53-0.733-0.711
			c-0.299-0.18-0.661-0.269-1.088-0.269c-0.426,0-0.792,0.087-1.096,0.262c-0.304,0.175-0.555,0.406-0.753,0.691
			c-0.2,0.283-0.345,0.608-0.436,0.974c-0.09,0.365-0.134,0.737-0.134,1.117c0,0.37,0.047,0.731,0.143,1.081
			c0.095,0.351,0.241,0.662,0.44,0.932c0.199,0.271,0.45,0.489,0.755,0.655c0.302,0.165,0.662,0.248,1.08,0.248
			C139.392,79.771,139.734,79.688,140.027,79.522z"/>
		<path fill="#99989D" d="M144.479,74.408c0.152-0.314,0.359-0.569,0.621-0.768c0.259-0.2,0.565-0.346,0.916-0.442
			c0.352-0.095,0.74-0.142,1.167-0.142c0.322,0,0.645,0.03,0.967,0.092c0.322,0.062,0.612,0.178,0.868,0.348
			c0.256,0.171,0.464,0.412,0.625,0.719c0.161,0.308,0.242,0.709,0.242,1.203v3.897c0,0.36,0.176,0.541,0.526,0.541
			c0.104,0,0.199-0.02,0.284-0.057v0.753c-0.104,0.02-0.197,0.033-0.277,0.043c-0.081,0.01-0.182,0.014-0.306,0.014
			c-0.228,0-0.41-0.03-0.547-0.092c-0.138-0.062-0.245-0.149-0.32-0.264c-0.076-0.114-0.126-0.249-0.15-0.406
			c-0.023-0.155-0.034-0.329-0.034-0.518h-0.029c-0.161,0.235-0.325,0.447-0.49,0.632c-0.166,0.185-0.352,0.339-0.556,0.463
			c-0.203,0.124-0.436,0.219-0.696,0.284c-0.261,0.067-0.571,0.101-0.932,0.101c-0.342,0-0.661-0.042-0.96-0.121
			c-0.298-0.08-0.56-0.21-0.782-0.384c-0.224-0.176-0.398-0.399-0.526-0.669c-0.128-0.271-0.193-0.591-0.193-0.96
			c0-0.512,0.114-0.912,0.343-1.203c0.227-0.289,0.528-0.51,0.902-0.661c0.375-0.151,0.797-0.259,1.268-0.32
			c0.469-0.062,0.945-0.121,1.429-0.177c0.189-0.02,0.355-0.043,0.497-0.071c0.144-0.029,0.262-0.079,0.355-0.15
			c0.095-0.071,0.169-0.168,0.222-0.292c0.052-0.124,0.077-0.285,0.077-0.484c0-0.303-0.049-0.553-0.148-0.747
			c-0.1-0.193-0.237-0.349-0.413-0.461c-0.176-0.114-0.379-0.193-0.611-0.234c-0.232-0.043-0.481-0.064-0.747-0.064
			c-0.569,0-1.033,0.135-1.395,0.404c-0.359,0.271-0.551,0.704-0.568,1.302h-0.896C144.238,75.09,144.328,74.721,144.479,74.408z
			 M148.961,76.599c-0.058,0.104-0.167,0.179-0.328,0.227c-0.161,0.048-0.303,0.08-0.427,0.1c-0.379,0.067-0.771,0.126-1.173,0.178
			c-0.404,0.052-0.771,0.13-1.103,0.234c-0.332,0.104-0.604,0.255-0.817,0.449c-0.215,0.195-0.319,0.471-0.319,0.832
			c0,0.227,0.044,0.429,0.134,0.604c0.091,0.176,0.211,0.327,0.363,0.456c0.151,0.128,0.326,0.226,0.526,0.291
			c0.198,0.066,0.402,0.1,0.61,0.1c0.342,0,0.669-0.052,0.982-0.157c0.312-0.104,0.585-0.256,0.818-0.455
			c0.231-0.199,0.417-0.441,0.555-0.724c0.138-0.285,0.205-0.607,0.205-0.968v-1.166H148.961z"/>
		<path fill="#99989D" d="M152.887,73.269v1.267h0.029c0.169-0.446,0.474-0.804,0.909-1.074c0.437-0.271,0.916-0.406,1.437-0.406
			c0.513,0,0.942,0.066,1.288,0.199c0.346,0.133,0.624,0.321,0.832,0.562s0.355,0.538,0.44,0.889
			c0.086,0.35,0.128,0.745,0.128,1.181v4.722h-0.896v-4.58c0-0.312-0.027-0.604-0.084-0.875c-0.058-0.27-0.158-0.504-0.299-0.705
			c-0.144-0.198-0.335-0.355-0.577-0.469c-0.242-0.114-0.543-0.169-0.902-0.169c-0.361,0-0.681,0.064-0.96,0.191
			c-0.28,0.128-0.517,0.303-0.712,0.527c-0.194,0.222-0.347,0.487-0.455,0.795c-0.11,0.309-0.168,0.644-0.178,1.003v4.281h-0.896
			v-7.34H152.887z"/>
		<path fill="#99989D" d="M160.882,70.453v1.437h-0.898v-1.437H160.882z M160.882,73.269v7.34h-0.898v-7.34H160.882z"/>
		<path fill="#99989D" d="M167.424,74.279c-0.331-0.312-0.796-0.468-1.394-0.468c-0.428,0-0.801,0.089-1.123,0.269
			c-0.324,0.181-0.59,0.418-0.805,0.711c-0.214,0.295-0.375,0.628-0.483,1.003c-0.109,0.375-0.163,0.755-0.163,1.144
			c0,0.389,0.054,0.771,0.163,1.146c0.108,0.374,0.27,0.708,0.483,1.004c0.215,0.293,0.48,0.53,0.805,0.711
			c0.322,0.18,0.695,0.27,1.123,0.27c0.274,0,0.536-0.052,0.782-0.157c0.246-0.104,0.465-0.248,0.654-0.434
			c0.189-0.185,0.347-0.405,0.47-0.661c0.122-0.256,0.199-0.536,0.227-0.839h0.897c-0.123,0.892-0.451,1.587-0.982,2.084
			c-0.53,0.497-1.214,0.747-2.048,0.747c-0.56,0-1.055-0.103-1.487-0.308c-0.431-0.202-0.793-0.479-1.087-0.832
			c-0.296-0.35-0.518-0.759-0.669-1.229c-0.153-0.469-0.228-0.97-0.228-1.502c0-0.53,0.074-1.031,0.228-1.5
			c0.151-0.47,0.373-0.879,0.669-1.231c0.294-0.35,0.656-0.63,1.087-0.839c0.433-0.208,0.928-0.312,1.487-0.312
			c0.786,0,1.454,0.208,1.998,0.625c0.546,0.418,0.87,1.049,0.976,1.892h-0.896C167.983,75.023,167.757,74.593,167.424,74.279z"/>
		<path fill="#99989D" d="M175.093,73.269l2.303,6.445h0.029l2.275-6.445h0.926l-2.746,7.34h-0.954l-2.83-7.34H175.093z"/>
		<path fill="#99989D" d="M182.745,70.453v1.437h-0.897v-1.437H182.745z M182.745,73.269v7.34h-0.897v-7.34H182.745z"/>
		<path fill="#99989D" d="M185.676,73.269v1.267h0.028c0.17-0.446,0.474-0.804,0.91-1.074c0.437-0.271,0.916-0.406,1.437-0.406
			c0.513,0,0.942,0.066,1.287,0.199c0.347,0.133,0.625,0.321,0.832,0.562c0.209,0.242,0.356,0.538,0.441,0.889
			c0.086,0.35,0.128,0.745,0.128,1.181v4.722h-0.896v-4.58c0-0.312-0.027-0.604-0.085-0.875c-0.057-0.27-0.157-0.504-0.298-0.705
			c-0.144-0.198-0.335-0.355-0.577-0.469c-0.242-0.114-0.543-0.169-0.903-0.169s-0.68,0.064-0.96,0.191
			c-0.28,0.128-0.517,0.303-0.711,0.527c-0.194,0.222-0.347,0.487-0.455,0.795c-0.11,0.309-0.168,0.644-0.178,1.003v4.281h-0.896
			v-7.34H185.676z"/>
		<path fill="#99989D" d="M193.42,78.184c0.091,0.348,0.234,0.658,0.435,0.933c0.198,0.275,0.45,0.503,0.753,0.684
			c0.305,0.18,0.67,0.27,1.097,0.27c0.654,0,1.167-0.171,1.536-0.513c0.369-0.34,0.625-0.796,0.769-1.366h0.896
			c-0.19,0.834-0.539,1.479-1.046,1.935c-0.508,0.456-1.226,0.684-2.154,0.684c-0.579,0-1.08-0.103-1.501-0.308
			c-0.422-0.202-0.767-0.483-1.031-0.838c-0.267-0.356-0.463-0.769-0.591-1.238c-0.129-0.469-0.192-0.964-0.192-1.487
			c0-0.483,0.063-0.957,0.192-1.422c0.128-0.464,0.324-0.879,0.591-1.245c0.265-0.364,0.609-0.658,1.031-0.882
			c0.421-0.223,0.922-0.333,1.501-0.333c0.588,0,1.09,0.118,1.507,0.355c0.418,0.237,0.757,0.547,1.017,0.932
			c0.262,0.383,0.449,0.824,0.563,1.323c0.113,0.498,0.16,1.003,0.141,1.514h-5.646C193.285,77.505,193.329,77.838,193.42,78.184z
			 M197.858,75.446c-0.108-0.312-0.263-0.59-0.463-0.832c-0.198-0.242-0.439-0.437-0.726-0.583c-0.284-0.148-0.606-0.22-0.966-0.22
			c-0.37,0-0.697,0.072-0.982,0.22c-0.285,0.147-0.526,0.341-0.726,0.583c-0.198,0.241-0.357,0.522-0.476,0.839
			c-0.118,0.318-0.197,0.643-0.235,0.975h4.751C198.026,76.086,197.968,75.758,197.858,75.446z"/>
		<path fill="#99989D" d="M200.597,73.269l2.418,6.259l2.262-6.259h0.896l-3.186,8.451c-0.134,0.312-0.258,0.57-0.371,0.774
			c-0.113,0.205-0.239,0.365-0.376,0.483c-0.138,0.118-0.299,0.205-0.484,0.258c-0.184,0.052-0.419,0.077-0.704,0.077
			c-0.181-0.01-0.319-0.016-0.42-0.021c-0.1-0.004-0.187-0.021-0.264-0.049v-0.754c0.106,0.019,0.207,0.036,0.308,0.05
			c0.099,0.014,0.201,0.021,0.306,0.021c0.198,0,0.362-0.028,0.49-0.085s0.238-0.137,0.335-0.235
			c0.095-0.099,0.175-0.221,0.241-0.362c0.065-0.143,0.138-0.298,0.213-0.47l0.313-0.824l-2.932-7.313H200.597z"/>
		<path fill="#99989D" d="M207.566,74.408c0.152-0.314,0.359-0.569,0.62-0.768c0.261-0.2,0.566-0.346,0.917-0.442
			c0.352-0.095,0.741-0.142,1.167-0.142c0.322,0,0.645,0.03,0.967,0.092c0.322,0.062,0.612,0.178,0.868,0.348
			c0.256,0.171,0.464,0.412,0.625,0.719c0.161,0.308,0.242,0.709,0.242,1.203v3.897c0,0.36,0.176,0.541,0.526,0.541
			c0.104,0,0.199-0.02,0.284-0.057v0.753c-0.104,0.02-0.197,0.033-0.277,0.043s-0.182,0.014-0.306,0.014
			c-0.228,0-0.41-0.03-0.547-0.092c-0.138-0.062-0.244-0.149-0.319-0.264c-0.077-0.114-0.127-0.249-0.15-0.406
			c-0.024-0.155-0.035-0.329-0.035-0.518h-0.029c-0.161,0.235-0.325,0.447-0.49,0.632c-0.166,0.185-0.352,0.339-0.556,0.463
			c-0.203,0.124-0.436,0.219-0.696,0.284c-0.261,0.067-0.571,0.101-0.932,0.101c-0.342,0-0.661-0.042-0.96-0.121
			c-0.299-0.08-0.56-0.21-0.782-0.384c-0.224-0.176-0.398-0.399-0.526-0.669c-0.128-0.271-0.193-0.591-0.193-0.96
			c0-0.512,0.114-0.912,0.342-1.203c0.228-0.289,0.529-0.51,0.903-0.661c0.375-0.151,0.797-0.259,1.268-0.32
			c0.469-0.062,0.945-0.121,1.429-0.177c0.189-0.02,0.355-0.043,0.497-0.071c0.144-0.029,0.262-0.079,0.356-0.15
			c0.095-0.071,0.168-0.168,0.221-0.292c0.051-0.124,0.077-0.285,0.077-0.484c0-0.303-0.049-0.553-0.148-0.747
			c-0.1-0.193-0.237-0.349-0.413-0.461c-0.176-0.114-0.379-0.193-0.611-0.234c-0.232-0.043-0.481-0.064-0.747-0.064
			c-0.569,0-1.033,0.135-1.395,0.404c-0.359,0.271-0.55,0.704-0.568,1.302h-0.896C207.325,75.09,207.416,74.721,207.566,74.408z
			 M212.049,76.599c-0.058,0.104-0.167,0.179-0.328,0.227c-0.161,0.048-0.303,0.08-0.427,0.1c-0.379,0.067-0.771,0.126-1.173,0.178
			c-0.403,0.052-0.771,0.13-1.103,0.234c-0.332,0.104-0.604,0.255-0.817,0.449c-0.215,0.195-0.319,0.471-0.319,0.832
			c0,0.227,0.044,0.429,0.134,0.604c0.091,0.176,0.211,0.327,0.363,0.456c0.151,0.128,0.326,0.226,0.526,0.291
			c0.198,0.066,0.402,0.1,0.61,0.1c0.343,0,0.669-0.052,0.982-0.157c0.312-0.104,0.585-0.256,0.818-0.455
			c0.231-0.199,0.417-0.441,0.555-0.724c0.138-0.285,0.205-0.607,0.205-0.968v-1.166H212.049z"/>
		<path fill="#99989D" d="M215.918,73.269v1.722h0.029c0.227-0.598,0.58-1.058,1.059-1.38s1.05-0.47,1.713-0.44v0.896
			c-0.406-0.02-0.776,0.035-1.107,0.164c-0.332,0.127-0.62,0.31-0.861,0.547c-0.242,0.237-0.43,0.52-0.562,0.846
			c-0.133,0.328-0.2,0.685-0.2,1.074v3.912h-0.896v-7.34H215.918z"/>
		<path fill="#99989D" d="M225.278,80.609v-1.393h-0.029c-0.095,0.236-0.235,0.453-0.42,0.654c-0.186,0.198-0.396,0.366-0.633,0.504
			c-0.236,0.137-0.491,0.244-0.761,0.32c-0.271,0.075-0.538,0.114-0.805,0.114c-0.56,0-1.046-0.103-1.458-0.308
			c-0.412-0.202-0.756-0.483-1.031-0.838c-0.274-0.356-0.479-0.769-0.611-1.238c-0.133-0.469-0.199-0.964-0.199-1.487
			c0-0.521,0.066-1.017,0.199-1.486c0.133-0.47,0.337-0.882,0.611-1.238c0.275-0.356,0.619-0.638,1.031-0.846
			s0.898-0.312,1.458-0.312c0.276,0,0.544,0.033,0.805,0.099c0.26,0.066,0.505,0.169,0.732,0.307s0.429,0.305,0.604,0.504
			c0.176,0.2,0.312,0.432,0.406,0.697h0.027v-4.21h0.897v10.156H225.278z M220.362,78.07c0.091,0.375,0.232,0.71,0.428,1.003
			c0.193,0.295,0.442,0.533,0.747,0.718c0.302,0.187,0.668,0.278,1.094,0.278c0.474,0,0.876-0.092,1.202-0.278
			c0.328-0.185,0.594-0.423,0.797-0.718c0.203-0.293,0.351-0.628,0.441-1.003c0.09-0.374,0.134-0.751,0.134-1.131
			c0-0.379-0.044-0.755-0.134-1.13c-0.091-0.374-0.238-0.708-0.441-1.003c-0.203-0.293-0.469-0.534-0.797-0.718
			c-0.326-0.185-0.729-0.276-1.202-0.276c-0.426,0-0.792,0.092-1.094,0.276c-0.305,0.185-0.554,0.425-0.747,0.718
			c-0.195,0.294-0.337,0.629-0.428,1.003c-0.09,0.375-0.136,0.751-0.136,1.13C220.227,77.318,220.272,77.696,220.362,78.07z"/>
	</g>
</g>
</svg>
