<?xml version="1.0" encoding="utf-8"?>
<!-- Generator: Adobe Illustrator 15.0.0, SVG Export Plug-In . SVG Version: 6.00 Build 0)  -->
<!DOCTYPE svg PUBLIC "-//W3C//DTD SVG 1.1//EN" "http://www.w3.org/Graphics/SVG/1.1/DTD/svg11.dtd">
<svg version="1.1" id="Capa_1" xmlns="http://www.w3.org/2000/svg" xmlns:xlink="http://www.w3.org/1999/xlink" x="0px" y="0px"
	 width="240.94px" height="155.91px" viewBox="0 0 240.94 155.91" enable-background="new 0 0 240.94 155.91" xml:space="preserve">
<path fill="#222220" d="M62.225,106.825c-0.928-0.738-2.066-1.304-3.417-1.699c-1.35-0.396-2.858-0.592-4.522-0.592H44.054v28.646
	h1.392v-11.009v-1.268v-15.103h8.717c2.973,0,5.313,0.649,7.018,1.949c1.705,1.301,2.558,3.141,2.558,5.521v0.082
	c0,2.406-0.879,4.268-2.639,5.582c-1.76,1.312-4.127,1.969-7.101,1.969h-0.23c0,0.475,0.003,0.688,0.003,1.268h0.186
	c1.637,0,3.137-0.19,4.501-0.573c1.364-0.381,2.545-0.954,3.54-1.718c0.996-0.763,1.766-1.691,2.312-2.783
	c0.545-1.09,0.818-2.359,0.818-3.807v-0.081c0-1.364-0.252-2.585-0.757-3.664C63.869,108.469,63.152,107.562,62.225,106.825"/>
<polygon fill="#222220" points="72.825,119.389 72.825,118.12 72.825,105.801 91.608,105.801 91.608,104.534 71.434,104.534 
	71.434,133.18 91.813,133.18 91.813,131.911 72.825,131.911 "/>
<rect x="80.745" y="118.312" fill="#222220" width="9.062" height="1.428"/>
<polygon fill="#222220" points="120.826,130.806 99.914,104.534 98.647,104.534 98.647,133.18 100.037,133.18 100.037,106.702 
	121.115,133.18 122.218,133.18 122.218,118.174 120.826,118.174 "/>
<polygon fill="#840C4A" points="141.865,130.889 130.648,104.534 128.275,104.534 140.881,133.384 142.765,133.384 155.369,104.534 
	153.118,104.534 "/>
<rect x="161.713" y="104.534" fill="#840C4A" width="2.127" height="28.646"/>
<polygon fill="#840C4A" points="194.413,129.456 174.646,104.534 172.639,104.534 172.639,133.18 174.686,133.18 174.686,107.725 
	194.86,133.18 196.456,133.18 196.456,104.534 194.413,104.534 "/>
<path fill="#840C4A" d="M232.511,118.775c0-1.965-0.34-3.832-1.023-5.607c-0.683-1.774-1.65-3.336-2.906-4.686
	c-1.254-1.351-2.77-2.428-4.541-3.233c-1.774-0.804-3.737-1.207-5.895-1.207c-2.183,0-4.16,0.403-5.932,1.207
	c-1.776,0.806-3.29,1.891-4.544,3.253c-1.255,1.364-2.231,2.94-2.927,4.729c-0.696,1.785-1.044,3.662-1.044,5.624v0.082
	c0,1.966,0.343,3.834,1.022,5.607c0.682,1.772,1.652,3.335,2.907,4.687c1.255,1.349,2.762,2.427,4.521,3.233
	c1.762,0.803,3.732,1.207,5.914,1.207c2.156,0,4.126-0.404,5.914-1.207c1.787-0.807,3.308-1.891,4.561-3.254
	c1.256-1.365,2.233-2.941,2.928-4.728c0.695-1.786,1.044-3.664,1.044-5.628C232.538,118.829,232.538,118.804,232.511,118.775
	 M230.301,118.938c0,1.774-0.302,3.438-0.9,4.993c-0.6,1.556-1.439,2.912-2.519,4.073c-1.077,1.16-2.358,2.073-3.846,2.741
	c-1.485,0.669-3.118,1.003-4.891,1.003c-1.771,0-3.41-0.342-4.909-1.022c-1.502-0.683-2.791-1.604-3.868-2.763
	c-1.079-1.159-1.923-2.524-2.538-4.094c-0.612-1.567-0.92-3.239-0.92-5.014v-0.08c0-1.774,0.301-3.438,0.9-4.993
	c0.598-1.555,1.439-2.912,2.517-4.072s2.358-2.073,3.847-2.742c1.487-0.668,3.116-1.004,4.891-1.004c1.773,0,3.409,0.342,4.91,1.024
	c1.499,0.683,2.791,1.604,3.868,2.762c1.078,1.16,1.921,2.525,2.537,4.093c0.615,1.568,0.921,3.241,0.921,5.013V118.938z"/>
<path fill="#222220" d="M36.852,118.815c0-1.965-0.334-3.833-1.001-5.606c-0.67-1.774-1.632-3.343-2.886-4.708
	c-1.255-1.361-2.762-2.446-4.522-3.252c-1.759-0.804-3.717-1.207-5.873-1.207c-2.183,0-4.153,0.403-5.914,1.207
	c-1.759,0.806-3.26,1.891-4.502,3.252c-0.258,0.284-0.5,0.583-0.732,0.888L12,109.873l0.448,0.377
	c0.241-0.321,0.49-0.633,0.762-0.929c1.123-1.228,2.478-2.202,4.064-2.927c1.587-0.722,3.339-1.084,5.255-1.084
	c1.916,0,3.667,0.369,5.254,1.104c1.586,0.738,2.949,1.726,4.085,2.968c1.136,1.241,2.018,2.679,2.648,4.317
	c0.628,1.638,0.944,3.354,0.944,5.155v0.082c0,1.801-0.316,3.521-0.944,5.156c-0.63,1.638-1.506,3.07-2.628,4.298
	c-1.122,1.228-2.469,2.203-4.043,2.927c-1.573,0.722-3.319,1.085-5.234,1.085s-3.667-0.37-5.255-1.106
	c-1.587-0.735-2.956-1.725-4.106-2.966c-0.304-0.328-0.583-0.677-0.85-1.033l-0.491,0.412l-0.6,0.504
	c0.261,0.342,0.531,0.677,0.826,0.997c1.254,1.363,2.754,2.447,4.501,3.254c1.745,0.803,3.71,1.207,5.893,1.207
	c2.155,0,4.119-0.404,5.893-1.207c1.772-0.807,3.281-1.891,4.523-3.254c1.24-1.365,2.202-2.934,2.884-4.707
	c0.681-1.772,1.023-3.644,1.023-5.606C36.906,118.844,36.906,118.815,36.852,118.815"/>
<path fill="#382423" d="M62.393,25.656c-0.928-0.737-2.066-1.303-3.417-1.699s-2.858-0.592-4.522-0.592H44.222V52.01h1.391V41.002
	v-1.269V24.632h8.717c2.974,0,5.313,0.65,7.019,1.95c1.705,1.299,2.558,3.139,2.558,5.52v0.081c0,2.407-0.879,4.267-2.64,5.582
	c-1.76,1.312-4.127,1.969-7.101,1.969h-0.23c0,0.476,0.003,0.688,0.003,1.269h0.186c1.637,0,3.136-0.19,4.501-0.573
	c1.364-0.381,2.544-0.955,3.54-1.719c0.996-0.763,1.766-1.69,2.312-2.783c0.545-1.091,0.82-2.359,0.82-3.806V32.04
	c0-1.364-0.253-2.585-0.758-3.664C64.036,27.299,63.319,26.392,62.393,25.656"/>
<polygon fill="#382423" points="72.992,38.22 72.992,36.951 72.992,24.632 91.776,24.632 91.776,23.365 71.601,23.365 71.601,52.01 
	91.981,52.01 91.981,50.742 72.992,50.742 "/>
<rect x="80.912" y="37.144" fill="#382423" width="9.062" height="1.427"/>
<polygon fill="#382423" points="120.994,49.637 100.082,23.365 98.814,23.365 98.814,52.01 100.205,52.01 100.205,25.533 
	121.283,52.01 122.386,52.01 122.386,37.005 120.994,37.005 "/>
<polygon fill="#382423" points="142.036,49.719 130.815,23.365 128.444,23.365 141.052,52.215 142.936,52.215 155.544,23.365 
	153.293,23.365 "/>
<rect x="161.888" y="23.365" fill="#382423" width="2.127" height="28.645"/>
<polygon fill="#382423" points="194.587,48.286 174.82,23.365 172.814,23.365 172.814,52.01 174.86,52.01 174.86,26.557 
	195.036,52.01 196.632,52.01 196.632,23.365 194.587,23.365 "/>
<path fill="#382423" d="M232.686,37.605c0-1.964-0.34-3.833-1.023-5.606c-0.683-1.773-1.651-3.335-2.905-4.686
	c-1.255-1.35-2.77-2.428-4.542-3.233c-1.775-0.804-3.737-1.208-5.896-1.208c-2.182,0-4.159,0.403-5.932,1.208
	c-1.774,0.805-3.288,1.89-4.542,3.253c-1.256,1.365-2.232,2.94-2.928,4.728c-0.695,1.787-1.043,3.663-1.043,5.626v0.082
	c0,1.964,0.342,3.833,1.021,5.606c0.681,1.774,1.652,3.336,2.908,4.687c1.254,1.35,2.761,2.428,4.521,3.232
	c1.761,0.805,3.732,1.208,5.914,1.208c2.156,0,4.127-0.403,5.913-1.208c1.788-0.805,3.308-1.89,4.561-3.252
	c1.257-1.365,2.234-2.941,2.929-4.729c0.696-1.786,1.044-3.662,1.044-5.626C232.713,37.66,232.713,37.634,232.686,37.605
	 M230.477,37.769c0,1.774-0.303,3.438-0.901,4.993c-0.601,1.555-1.439,2.913-2.517,4.073c-1.078,1.159-2.361,2.072-3.847,2.74
	c-1.487,0.669-3.118,1.003-4.893,1.003c-1.77,0-3.408-0.341-4.908-1.022c-1.502-0.682-2.791-1.603-3.867-2.762
	c-1.08-1.159-1.924-2.524-2.539-4.093c-0.612-1.567-0.919-3.239-0.919-5.013v-0.082c0-1.773,0.299-3.438,0.899-4.992
	c0.599-1.556,1.439-2.912,2.517-4.073c1.078-1.159,2.358-2.073,3.848-2.741c1.485-0.668,3.115-1.002,4.89-1.002
	c1.772,0,3.41,0.341,4.91,1.023s2.791,1.603,3.868,2.762c1.077,1.159,1.921,2.523,2.537,4.092c0.614,1.57,0.922,3.24,0.922,5.013
	V37.769z"/>
<path fill="#382423" d="M37.02,37.646c0-1.963-0.334-3.832-1.001-5.605c-0.67-1.775-1.632-3.342-2.886-4.708
	c-1.256-1.362-2.763-2.447-4.523-3.252c-1.759-0.804-3.717-1.208-5.873-1.208c-2.183,0-4.153,0.403-5.914,1.208
	c-1.759,0.805-3.26,1.89-4.501,3.252c-0.259,0.285-0.5,0.583-0.733,0.886l0.579,0.486l0.447,0.376
	c0.242-0.321,0.491-0.633,0.762-0.929c1.123-1.228,2.478-2.204,4.065-2.927c1.587-0.722,3.339-1.085,5.255-1.085
	c1.916,0,3.667,0.369,5.255,1.105c1.586,0.737,2.949,1.726,4.084,2.966c1.136,1.243,2.018,2.681,2.648,4.319
	c0.629,1.637,0.944,3.355,0.944,5.156v0.082c0,1.801-0.315,3.52-0.944,5.156c-0.63,1.637-1.506,3.07-2.628,4.297
	c-1.122,1.227-2.47,2.203-4.043,2.926c-1.573,0.722-3.319,1.084-5.235,1.084c-1.915,0-3.667-0.368-5.255-1.104
	c-1.587-0.738-2.955-1.725-4.105-2.967c-0.303-0.328-0.583-0.676-0.85-1.034l-0.491,0.414l-0.6,0.503
	c0.261,0.342,0.531,0.677,0.826,0.998c1.254,1.363,2.754,2.448,4.501,3.252c1.745,0.805,3.71,1.208,5.893,1.208
	c2.155,0,4.119-0.403,5.893-1.208c1.773-0.805,3.281-1.89,4.523-3.252c1.241-1.365,2.202-2.934,2.884-4.707
	c0.681-1.773,1.022-3.644,1.022-5.606C37.074,37.674,37.074,37.646,37.02,37.646"/>
</svg>
